<mxfile host="Electron" modified="2023-09-07T14:46:34.267Z" agent="Mozilla/5.0 (Windows NT 10.0; Win64; x64) AppleWebKit/537.36 (KHTML, like Gecko) draw.io/21.6.8 Chrome/114.0.5735.289 Electron/25.5.0 Safari/537.36" etag="6LpZPZhOlu7puz1YE1_3" version="21.6.8" type="device">
  <diagram name="第 1 页" id="xlU4EctzSdcZeAniLkPW">
    <mxGraphModel dx="2122" dy="2004" grid="1" gridSize="10" guides="1" tooltips="1" connect="1" arrows="1" fold="1" page="1" pageScale="1" pageWidth="827" pageHeight="1169" math="0" shadow="0">
      <root>
        <mxCell id="0" />
        <mxCell id="1" parent="0" />
        <mxCell id="1IwON-_dg44sj4eQbkTv-2" value="" style="rounded=0;whiteSpace=wrap;html=1;" parent="1" vertex="1">
          <mxGeometry x="-740" y="-750" width="1550" height="1770" as="geometry" />
        </mxCell>
        <mxCell id="k71ltwAw9ipfWd2oro5A-15" value="" style="rounded=1;whiteSpace=wrap;html=1;fillColor=#ffe6cc;strokeColor=#d79b00;" vertex="1" parent="1">
          <mxGeometry x="-650" y="-705" width="570" height="655" as="geometry" />
        </mxCell>
        <mxCell id="JP1C0DZdPH4XbnEmepRd-2" value="" style="endArrow=classic;html=1;rounded=0;" parent="1" edge="1">
          <mxGeometry width="50" height="50" relative="1" as="geometry">
            <mxPoint x="10" y="70" as="sourcePoint" />
            <mxPoint x="60" y="70" as="targetPoint" />
          </mxGeometry>
        </mxCell>
        <mxCell id="JP1C0DZdPH4XbnEmepRd-3" value="trian.py&lt;br&gt;" style="text;html=1;align=center;verticalAlign=middle;resizable=0;points=[];autosize=1;strokeColor=none;fillColor=none;" parent="1" vertex="1">
          <mxGeometry y="38" width="60" height="30" as="geometry" />
        </mxCell>
        <mxCell id="JP1C0DZdPH4XbnEmepRd-7" value="" style="rounded=1;whiteSpace=wrap;html=1;fillColor=#ffe6cc;strokeColor=#d79b00;" parent="1" vertex="1">
          <mxGeometry x="105" y="-120" width="695" height="970" as="geometry" />
        </mxCell>
        <mxCell id="JP1C0DZdPH4XbnEmepRd-6" value="" style="rounded=1;whiteSpace=wrap;html=1;fillColor=#d5e8d4;strokeColor=#82b366;" parent="1" vertex="1">
          <mxGeometry x="130" y="-90" width="200" height="490" as="geometry" />
        </mxCell>
        <mxCell id="JP1C0DZdPH4XbnEmepRd-8" value="Runner" style="text;html=1;align=center;verticalAlign=middle;resizable=0;points=[];autosize=1;strokeColor=none;fillColor=none;" parent="1" vertex="1">
          <mxGeometry x="277.5" y="-120" width="60" height="30" as="geometry" />
        </mxCell>
        <mxCell id="JP1C0DZdPH4XbnEmepRd-9" value="_train_loop" style="rounded=1;whiteSpace=wrap;html=1;fillColor=#dae8fc;strokeColor=#6c8ebf;" parent="1" vertex="1">
          <mxGeometry x="130" y="-60" width="120" height="30" as="geometry" />
        </mxCell>
        <mxCell id="JP1C0DZdPH4XbnEmepRd-10" value="train" style="text;html=1;align=center;verticalAlign=middle;resizable=0;points=[];autosize=1;strokeColor=none;fillColor=none;" parent="1" vertex="1">
          <mxGeometry x="204.38" y="-90" width="50" height="30" as="geometry" />
        </mxCell>
        <mxCell id="JP1C0DZdPH4XbnEmepRd-11" value="Runnerd读取配置文件的各个组件并未实例化，仍是字典" style="text;html=1;align=center;verticalAlign=middle;resizable=0;points=[];autosize=1;strokeColor=none;fillColor=none;" parent="1" vertex="1">
          <mxGeometry x="147.5" y="-150" width="320" height="30" as="geometry" />
        </mxCell>
        <mxCell id="JP1C0DZdPH4XbnEmepRd-12" value="optim_wrapper" style="rounded=1;whiteSpace=wrap;html=1;fillColor=#dae8fc;strokeColor=#6c8ebf;" parent="1" vertex="1">
          <mxGeometry x="130" y="-20" width="120" height="30" as="geometry" />
        </mxCell>
        <mxCell id="JP1C0DZdPH4XbnEmepRd-15" value="" style="rounded=0;whiteSpace=wrap;html=1;fillColor=#d5e8d4;strokeColor=#82b366;" parent="1" vertex="1">
          <mxGeometry x="115" y="-430" width="230" height="230" as="geometry" />
        </mxCell>
        <mxCell id="JP1C0DZdPH4XbnEmepRd-16" value="optim_wrapper" style="text;html=1;align=center;verticalAlign=middle;resizable=0;points=[];autosize=1;strokeColor=none;fillColor=none;" parent="1" vertex="1">
          <mxGeometry x="175" y="-440" width="100" height="30" as="geometry" />
        </mxCell>
        <mxCell id="JP1C0DZdPH4XbnEmepRd-17" value="1.如果是Optimizer对象，则由OPTIM_WRAPPERS进行构建" style="rounded=1;whiteSpace=wrap;html=1;fillColor=#dae8fc;strokeColor=#6c8ebf;" parent="1" vertex="1">
          <mxGeometry x="115" y="-390" width="230" height="50" as="geometry" />
        </mxCell>
        <mxCell id="JP1C0DZdPH4XbnEmepRd-18" value="2.如果是dict且含有constructor字段，则由build_optim_wrapper进行构建" style="rounded=1;whiteSpace=wrap;html=1;fillColor=#dae8fc;strokeColor=#6c8ebf;" parent="1" vertex="1">
          <mxGeometry x="115" y="-290" width="230" height="50" as="geometry" />
        </mxCell>
        <mxCell id="JP1C0DZdPH4XbnEmepRd-19" value="" style="endArrow=classic;html=1;rounded=0;exitX=0.199;exitY=1.001;exitDx=0;exitDy=0;entryX=0.25;entryY=0;entryDx=0;entryDy=0;exitPerimeter=0;" parent="1" source="JP1C0DZdPH4XbnEmepRd-15" target="JP1C0DZdPH4XbnEmepRd-12" edge="1">
          <mxGeometry width="50" height="50" relative="1" as="geometry">
            <mxPoint x="560" y="-60" as="sourcePoint" />
            <mxPoint x="610" y="-110" as="targetPoint" />
          </mxGeometry>
        </mxCell>
        <mxCell id="JP1C0DZdPH4XbnEmepRd-21" value="" style="rounded=0;whiteSpace=wrap;html=1;fillColor=#d5e8d4;strokeColor=#82b366;" parent="1" vertex="1">
          <mxGeometry x="115" y="-690" width="230" height="230" as="geometry" />
        </mxCell>
        <mxCell id="JP1C0DZdPH4XbnEmepRd-22" value="optim_wrapper_constructor" style="text;html=1;align=center;verticalAlign=middle;resizable=0;points=[];autosize=1;strokeColor=none;fillColor=none;" parent="1" vertex="1">
          <mxGeometry x="140" y="-690" width="170" height="30" as="geometry" />
        </mxCell>
        <mxCell id="JP1C0DZdPH4XbnEmepRd-26" value="1.使用注册器的字典，获取对应的类(_module_dict&lt;span style=&quot;background-color: initial;&quot;&gt;)&lt;/span&gt;&lt;br&gt;2.构建对象，即类(**args),args是从配置文件读取的组件参数&lt;br&gt;3.有的类时继承ManagerMin类的&lt;br&gt;（注意注册机制只有在导入被注册模块时才会触发，而步骤1获取对应类时的get方法里会去导入模块" style="rounded=0;whiteSpace=wrap;html=1;fillColor=#d5e8d4;strokeColor=#82b366;" parent="1" vertex="1">
          <mxGeometry x="60" y="870" width="300" height="130" as="geometry" />
        </mxCell>
        <mxCell id="JP1C0DZdPH4XbnEmepRd-27" value="build_from_cfg" style="text;html=1;align=center;verticalAlign=middle;resizable=0;points=[];autosize=1;strokeColor=none;fillColor=none;" parent="1" vertex="1">
          <mxGeometry x="160" y="860" width="100" height="30" as="geometry" />
        </mxCell>
        <mxCell id="JP1C0DZdPH4XbnEmepRd-28" value="1.构建optim_wrapper_constructor" style="rounded=1;whiteSpace=wrap;html=1;fillColor=#dae8fc;strokeColor=#6c8ebf;" parent="1" vertex="1">
          <mxGeometry x="117.5" y="-660" width="225" height="40" as="geometry" />
        </mxCell>
        <mxCell id="JP1C0DZdPH4XbnEmepRd-29" value="2.构建optimizer" style="rounded=1;whiteSpace=wrap;html=1;fillColor=#dae8fc;strokeColor=#6c8ebf;" parent="1" vertex="1">
          <mxGeometry x="118.75" y="-600" width="222.5" height="40" as="geometry" />
        </mxCell>
        <mxCell id="JP1C0DZdPH4XbnEmepRd-30" value="3.构建optim_wrapper" style="rounded=1;whiteSpace=wrap;html=1;fillColor=#dae8fc;strokeColor=#6c8ebf;" parent="1" vertex="1">
          <mxGeometry x="118.75" y="-540" width="221.25" height="40" as="geometry" />
        </mxCell>
        <mxCell id="JP1C0DZdPH4XbnEmepRd-33" value="" style="edgeStyle=elbowEdgeStyle;elbow=horizontal;endArrow=classic;html=1;curved=0;rounded=0;endSize=8;startSize=8;exitX=0;exitY=1;exitDx=0;exitDy=0;entryX=0;entryY=0.5;entryDx=0;entryDy=0;" parent="1" source="JP1C0DZdPH4XbnEmepRd-21" target="JP1C0DZdPH4XbnEmepRd-18" edge="1">
          <mxGeometry width="50" height="50" relative="1" as="geometry">
            <mxPoint x="400" y="-380" as="sourcePoint" />
            <mxPoint x="30" y="-260" as="targetPoint" />
            <Array as="points">
              <mxPoint x="40" y="-350" />
            </Array>
          </mxGeometry>
        </mxCell>
        <mxCell id="JP1C0DZdPH4XbnEmepRd-36" value="" style="edgeStyle=elbowEdgeStyle;elbow=horizontal;endArrow=classic;html=1;curved=0;rounded=0;endSize=8;startSize=8;exitX=1;exitY=0.5;exitDx=0;exitDy=0;entryX=0.996;entryY=0.569;entryDx=0;entryDy=0;entryPerimeter=0;" parent="1" source="JP1C0DZdPH4XbnEmepRd-28" target="JP1C0DZdPH4XbnEmepRd-29" edge="1">
          <mxGeometry width="50" height="50" relative="1" as="geometry">
            <mxPoint x="400" y="-500" as="sourcePoint" />
            <mxPoint x="450" y="-550" as="targetPoint" />
            <Array as="points">
              <mxPoint x="380" y="-600" />
            </Array>
          </mxGeometry>
        </mxCell>
        <mxCell id="JP1C0DZdPH4XbnEmepRd-39" value="" style="edgeStyle=elbowEdgeStyle;elbow=vertical;endArrow=classic;html=1;curved=0;rounded=0;endSize=8;startSize=8;entryX=1;entryY=0.5;entryDx=0;entryDy=0;" parent="1" target="JP1C0DZdPH4XbnEmepRd-30" edge="1">
          <mxGeometry width="50" height="50" relative="1" as="geometry">
            <mxPoint x="380" y="-570" as="sourcePoint" />
            <mxPoint x="450" y="-550" as="targetPoint" />
            <Array as="points">
              <mxPoint x="410" y="-510" />
            </Array>
          </mxGeometry>
        </mxCell>
        <mxCell id="JP1C0DZdPH4XbnEmepRd-40" value="&lt;font style=&quot;font-size: 8px;&quot;&gt;call(model),构建优化器需传入模型，以便将参数纳入优化器&lt;/font&gt;" style="text;html=1;align=center;verticalAlign=middle;resizable=0;points=[];autosize=1;strokeColor=none;fillColor=none;rotation=90;" parent="1" vertex="1">
          <mxGeometry x="285" y="-590" width="230" height="30" as="geometry" />
        </mxCell>
        <mxCell id="VXAmBpBjr5NodxqRLzYS-1" value="scale_lr" style="rounded=1;whiteSpace=wrap;html=1;fillColor=#dae8fc;strokeColor=#6c8ebf;" parent="1" vertex="1">
          <mxGeometry x="130" y="23" width="120" height="27" as="geometry" />
        </mxCell>
        <mxCell id="VXAmBpBjr5NodxqRLzYS-2" value="" style="endArrow=classic;html=1;rounded=0;exitX=0.75;exitY=1;exitDx=0;exitDy=0;entryX=0.75;entryY=0;entryDx=0;entryDy=0;" parent="1" source="JP1C0DZdPH4XbnEmepRd-9" target="JP1C0DZdPH4XbnEmepRd-12" edge="1">
          <mxGeometry width="50" height="50" relative="1" as="geometry">
            <mxPoint x="540" y="20" as="sourcePoint" />
            <mxPoint x="590" y="-30" as="targetPoint" />
          </mxGeometry>
        </mxCell>
        <mxCell id="VXAmBpBjr5NodxqRLzYS-3" value="" style="endArrow=classic;html=1;rounded=0;exitX=0.75;exitY=1;exitDx=0;exitDy=0;entryX=0.75;entryY=0;entryDx=0;entryDy=0;" parent="1" target="VXAmBpBjr5NodxqRLzYS-1" edge="1">
          <mxGeometry width="50" height="50" relative="1" as="geometry">
            <mxPoint x="220" y="10" as="sourcePoint" />
            <mxPoint x="220" y="27" as="targetPoint" />
          </mxGeometry>
        </mxCell>
        <mxCell id="VXAmBpBjr5NodxqRLzYS-4" value="param_scheduler" style="rounded=1;whiteSpace=wrap;html=1;fillColor=#dae8fc;strokeColor=#6c8ebf;" parent="1" vertex="1">
          <mxGeometry x="130" y="68" width="120" height="32" as="geometry" />
        </mxCell>
        <mxCell id="VXAmBpBjr5NodxqRLzYS-5" value="val_loop" style="rounded=1;whiteSpace=wrap;html=1;fillColor=#dae8fc;strokeColor=#6c8ebf;" parent="1" vertex="1">
          <mxGeometry x="130" y="120" width="120" height="30" as="geometry" />
        </mxCell>
        <mxCell id="VXAmBpBjr5NodxqRLzYS-6" value="call_hook(before run)" style="rounded=1;whiteSpace=wrap;html=1;fillColor=#dae8fc;strokeColor=#6c8ebf;" parent="1" vertex="1">
          <mxGeometry x="130" y="170" width="120" height="30" as="geometry" />
        </mxCell>
        <mxCell id="VXAmBpBjr5NodxqRLzYS-7" value="和runner一起在之前已经构建了对象" style="text;html=1;align=center;verticalAlign=middle;resizable=0;points=[];autosize=1;strokeColor=none;fillColor=none;rotation=90;" parent="1" vertex="1">
          <mxGeometry x="180" y="150" width="210" height="30" as="geometry" />
        </mxCell>
        <mxCell id="VXAmBpBjr5NodxqRLzYS-12" value="load_or_resume" style="rounded=1;whiteSpace=wrap;html=1;fillColor=#dae8fc;strokeColor=#6c8ebf;" parent="1" vertex="1">
          <mxGeometry x="130" y="220" width="120" height="30" as="geometry" />
        </mxCell>
        <mxCell id="VXAmBpBjr5NodxqRLzYS-13" value="model=train_loop.run()" style="rounded=1;whiteSpace=wrap;html=1;fillColor=#dae8fc;strokeColor=#6c8ebf;" parent="1" vertex="1">
          <mxGeometry x="130" y="270" width="120" height="30" as="geometry" />
        </mxCell>
        <mxCell id="VXAmBpBjr5NodxqRLzYS-15" value="call_hook(after run)" style="rounded=1;whiteSpace=wrap;html=1;fillColor=#dae8fc;strokeColor=#6c8ebf;" parent="1" vertex="1">
          <mxGeometry x="130" y="320" width="120" height="30" as="geometry" />
        </mxCell>
        <mxCell id="VXAmBpBjr5NodxqRLzYS-16" value="" style="rounded=1;whiteSpace=wrap;html=1;fillColor=#d5e8d4;strokeColor=#82b366;" parent="1" vertex="1">
          <mxGeometry x="467.5" y="-120" width="242.5" height="920" as="geometry" />
        </mxCell>
        <mxCell id="VXAmBpBjr5NodxqRLzYS-17" value="train_loop" style="text;html=1;align=center;verticalAlign=middle;resizable=0;points=[];autosize=1;strokeColor=none;fillColor=none;" parent="1" vertex="1">
          <mxGeometry x="507.5" y="-120" width="80" height="30" as="geometry" />
        </mxCell>
        <mxCell id="VXAmBpBjr5NodxqRLzYS-18" value="return model" style="text;html=1;align=center;verticalAlign=middle;resizable=0;points=[];autosize=1;strokeColor=none;fillColor=none;" parent="1" vertex="1">
          <mxGeometry x="180" y="370" width="90" height="30" as="geometry" />
        </mxCell>
        <mxCell id="VXAmBpBjr5NodxqRLzYS-19" value="" style="endArrow=classic;html=1;rounded=0;exitX=1;exitY=0.5;exitDx=0;exitDy=0;entryX=0;entryY=0.25;entryDx=0;entryDy=0;" parent="1" source="VXAmBpBjr5NodxqRLzYS-13" target="VXAmBpBjr5NodxqRLzYS-24" edge="1">
          <mxGeometry width="50" height="50" relative="1" as="geometry">
            <mxPoint x="500" y="280" as="sourcePoint" />
            <mxPoint x="550" y="230" as="targetPoint" />
          </mxGeometry>
        </mxCell>
        <mxCell id="VXAmBpBjr5NodxqRLzYS-20" value="" style="rounded=1;whiteSpace=wrap;html=1;fillColor=#dae8fc;strokeColor=#6c8ebf;" parent="1" vertex="1">
          <mxGeometry x="467.5" y="-80" width="120" height="200" as="geometry" />
        </mxCell>
        <mxCell id="VXAmBpBjr5NodxqRLzYS-21" value="call_hook(before_run)" style="rounded=1;whiteSpace=wrap;html=1;fillColor=#fff2cc;strokeColor=#d6b656;" parent="1" vertex="1">
          <mxGeometry x="467.5" y="-60" width="120" height="27" as="geometry" />
        </mxCell>
        <mxCell id="VXAmBpBjr5NodxqRLzYS-22" value="run()" style="text;html=1;align=center;verticalAlign=middle;resizable=0;points=[];autosize=1;strokeColor=none;fillColor=none;" parent="1" vertex="1">
          <mxGeometry x="502.5" y="-90" width="50" height="30" as="geometry" />
        </mxCell>
        <mxCell id="VXAmBpBjr5NodxqRLzYS-23" value="run_epoch()" style="rounded=1;whiteSpace=wrap;html=1;fillColor=#fff2cc;strokeColor=#d6b656;" parent="1" vertex="1">
          <mxGeometry x="467.5" y="-20" width="120" height="27" as="geometry" />
        </mxCell>
        <mxCell id="VXAmBpBjr5NodxqRLzYS-24" value="" style="rounded=1;whiteSpace=wrap;html=1;fillColor=#dae8fc;strokeColor=#6c8ebf;" parent="1" vertex="1">
          <mxGeometry x="467.5" y="140" width="182.5" height="160" as="geometry" />
        </mxCell>
        <mxCell id="VXAmBpBjr5NodxqRLzYS-27" value="runner.val_loop.run()" style="rounded=1;whiteSpace=wrap;html=1;fillColor=#fff2cc;strokeColor=#d6b656;" parent="1" vertex="1">
          <mxGeometry x="467.5" y="23" width="120" height="27" as="geometry" />
        </mxCell>
        <mxCell id="VXAmBpBjr5NodxqRLzYS-28" value="call_hook(after_run)" style="rounded=1;whiteSpace=wrap;html=1;fillColor=#fff2cc;strokeColor=#d6b656;" parent="1" vertex="1">
          <mxGeometry x="467.5" y="68" width="120" height="30" as="geometry" />
        </mxCell>
        <mxCell id="VXAmBpBjr5NodxqRLzYS-25" value="" style="endArrow=classic;html=1;rounded=0;exitX=0.25;exitY=1;exitDx=0;exitDy=0;entryX=0.168;entryY=0.002;entryDx=0;entryDy=0;entryPerimeter=0;" parent="1" source="VXAmBpBjr5NodxqRLzYS-23" target="VXAmBpBjr5NodxqRLzYS-24" edge="1">
          <mxGeometry width="50" height="50" relative="1" as="geometry">
            <mxPoint x="540" y="150" as="sourcePoint" />
            <mxPoint x="590" y="100" as="targetPoint" />
          </mxGeometry>
        </mxCell>
        <mxCell id="VXAmBpBjr5NodxqRLzYS-26" value="run_epoch()" style="text;html=1;align=center;verticalAlign=middle;resizable=0;points=[];autosize=1;strokeColor=none;fillColor=none;" parent="1" vertex="1">
          <mxGeometry x="520" y="130" width="90" height="30" as="geometry" />
        </mxCell>
        <mxCell id="cEgxLfp2-TmUM2ffQF3a-1" value="" style="endArrow=none;dashed=1;html=1;dashPattern=1 3;strokeWidth=2;rounded=0;exitX=1;exitY=0.5;exitDx=0;exitDy=0;" parent="1" source="VXAmBpBjr5NodxqRLzYS-5" target="VXAmBpBjr5NodxqRLzYS-7" edge="1">
          <mxGeometry width="50" height="50" relative="1" as="geometry">
            <mxPoint x="170" y="280" as="sourcePoint" />
            <mxPoint x="220" y="230" as="targetPoint" />
          </mxGeometry>
        </mxCell>
        <mxCell id="cEgxLfp2-TmUM2ffQF3a-2" value="" style="endArrow=none;dashed=1;html=1;dashPattern=1 3;strokeWidth=2;rounded=0;exitX=1;exitY=0.5;exitDx=0;exitDy=0;" parent="1" source="VXAmBpBjr5NodxqRLzYS-6" edge="1">
          <mxGeometry width="50" height="50" relative="1" as="geometry">
            <mxPoint x="260" y="145" as="sourcePoint" />
            <mxPoint x="280" y="162" as="targetPoint" />
          </mxGeometry>
        </mxCell>
        <mxCell id="cEgxLfp2-TmUM2ffQF3a-3" value="" style="endArrow=none;dashed=1;html=1;dashPattern=1 3;strokeWidth=2;rounded=0;exitX=1;exitY=0.5;exitDx=0;exitDy=0;" parent="1" source="VXAmBpBjr5NodxqRLzYS-13" edge="1">
          <mxGeometry width="50" height="50" relative="1" as="geometry">
            <mxPoint x="170" y="280" as="sourcePoint" />
            <mxPoint x="280" y="170" as="targetPoint" />
          </mxGeometry>
        </mxCell>
        <mxCell id="cEgxLfp2-TmUM2ffQF3a-4" value="call_hook(before_train_epoch)" style="rounded=1;whiteSpace=wrap;html=1;fillColor=#fff2cc;strokeColor=#d6b656;" parent="1" vertex="1">
          <mxGeometry x="467.5" y="155" width="182.5" height="25" as="geometry" />
        </mxCell>
        <mxCell id="cEgxLfp2-TmUM2ffQF3a-9" value="run_iter(for data in data_loader)" style="rounded=1;whiteSpace=wrap;html=1;fillColor=#fff2cc;strokeColor=#d6b656;" parent="1" vertex="1">
          <mxGeometry x="467.5" y="190" width="182.5" height="30" as="geometry" />
        </mxCell>
        <mxCell id="cEgxLfp2-TmUM2ffQF3a-10" value="" style="rounded=1;whiteSpace=wrap;html=1;fillColor=#dae8fc;strokeColor=#6c8ebf;" parent="1" vertex="1">
          <mxGeometry x="467.5" y="355" width="182.5" height="165" as="geometry" />
        </mxCell>
        <mxCell id="cEgxLfp2-TmUM2ffQF3a-11" value="run_iter" style="text;html=1;align=center;verticalAlign=middle;resizable=0;points=[];autosize=1;strokeColor=none;fillColor=none;" parent="1" vertex="1">
          <mxGeometry x="528.75" y="350" width="60" height="30" as="geometry" />
        </mxCell>
        <mxCell id="cEgxLfp2-TmUM2ffQF3a-13" value="call_hook(before_train_iter)" style="rounded=1;whiteSpace=wrap;html=1;fillColor=#fff2cc;strokeColor=#d6b656;" parent="1" vertex="1">
          <mxGeometry x="467.5" y="380" width="182.5" height="30" as="geometry" />
        </mxCell>
        <mxCell id="cEgxLfp2-TmUM2ffQF3a-14" value="runner.model.train_step()" style="rounded=1;whiteSpace=wrap;html=1;fillColor=#fff2cc;strokeColor=#d6b656;" parent="1" vertex="1">
          <mxGeometry x="467.5" y="420" width="182.5" height="30" as="geometry" />
        </mxCell>
        <mxCell id="cEgxLfp2-TmUM2ffQF3a-15" value="" style="rounded=1;whiteSpace=wrap;html=1;fillColor=#d5e8d4;strokeColor=#82b366;" parent="1" vertex="1">
          <mxGeometry x="130" y="440" width="200" height="380" as="geometry" />
        </mxCell>
        <mxCell id="1IwON-_dg44sj4eQbkTv-1" value="" style="edgeStyle=orthogonalEdgeStyle;rounded=0;orthogonalLoop=1;jettySize=auto;html=1;" parent="1" source="cEgxLfp2-TmUM2ffQF3a-16" target="cEgxLfp2-TmUM2ffQF3a-17" edge="1">
          <mxGeometry relative="1" as="geometry" />
        </mxCell>
        <mxCell id="cEgxLfp2-TmUM2ffQF3a-16" value="model.train_step" style="text;html=1;align=center;verticalAlign=middle;resizable=0;points=[];autosize=1;strokeColor=none;fillColor=none;" parent="1" vertex="1">
          <mxGeometry x="175" y="430" width="110" height="30" as="geometry" />
        </mxCell>
        <mxCell id="cEgxLfp2-TmUM2ffQF3a-17" value="data,optim_wrapper" style="rounded=0;whiteSpace=wrap;html=1;fillColor=#008a00;fontColor=#ffffff;strokeColor=#005700;" parent="1" vertex="1">
          <mxGeometry x="130" y="460" width="200" height="30" as="geometry" />
        </mxCell>
        <mxCell id="cEgxLfp2-TmUM2ffQF3a-18" value="data=data_preprocessor(data)" style="rounded=1;whiteSpace=wrap;html=1;fillColor=#dae8fc;strokeColor=#6c8ebf;" parent="1" vertex="1">
          <mxGeometry x="130" y="500" width="200" height="30" as="geometry" />
        </mxCell>
        <mxCell id="cEgxLfp2-TmUM2ffQF3a-19" value="" style="endArrow=classic;html=1;rounded=0;exitX=0;exitY=0.5;exitDx=0;exitDy=0;entryX=0.75;entryY=0;entryDx=0;entryDy=0;" parent="1" source="cEgxLfp2-TmUM2ffQF3a-14" target="cEgxLfp2-TmUM2ffQF3a-15" edge="1">
          <mxGeometry width="50" height="50" relative="1" as="geometry">
            <mxPoint x="430" y="530" as="sourcePoint" />
            <mxPoint x="480" y="480" as="targetPoint" />
          </mxGeometry>
        </mxCell>
        <mxCell id="cEgxLfp2-TmUM2ffQF3a-20" value="_run_forward(data,mode=&#39;loss&#39;)" style="rounded=1;whiteSpace=wrap;html=1;fillColor=#dae8fc;strokeColor=#6c8ebf;" parent="1" vertex="1">
          <mxGeometry x="130" y="540" width="200" height="30" as="geometry" />
        </mxCell>
        <mxCell id="cEgxLfp2-TmUM2ffQF3a-21" value="torch.nn.Module的一个方法，当继承该类的类的对象，直接调用，即model(data)时会调用该函数，该函数好像是为了加入hook，否则不起其他作用，只是过一下" style="rounded=0;whiteSpace=wrap;html=1;fillColor=#d5e8d4;strokeColor=#82b366;" parent="1" vertex="1">
          <mxGeometry x="400" y="890" width="260" height="110" as="geometry" />
        </mxCell>
        <mxCell id="cEgxLfp2-TmUM2ffQF3a-22" value="_call_impl" style="text;html=1;align=center;verticalAlign=middle;resizable=0;points=[];autosize=1;strokeColor=none;fillColor=none;" parent="1" vertex="1">
          <mxGeometry x="487.5" y="880" width="80" height="30" as="geometry" />
        </mxCell>
        <mxCell id="cEgxLfp2-TmUM2ffQF3a-23" value="" style="rounded=1;whiteSpace=wrap;html=1;fillColor=#dae8fc;strokeColor=#6c8ebf;" parent="1" vertex="1">
          <mxGeometry x="130" y="585" width="200" height="115" as="geometry" />
        </mxCell>
        <mxCell id="cEgxLfp2-TmUM2ffQF3a-24" value="loss(或者predict或者tensor)" style="text;html=1;align=center;verticalAlign=middle;resizable=0;points=[];autosize=1;strokeColor=none;fillColor=none;" parent="1" vertex="1">
          <mxGeometry x="145" y="580" width="170" height="30" as="geometry" />
        </mxCell>
        <mxCell id="cEgxLfp2-TmUM2ffQF3a-25" value="x=extract_feat(batch_inputs)" style="rounded=1;whiteSpace=wrap;html=1;fillColor=#fff2cc;strokeColor=#d6b656;" parent="1" vertex="1">
          <mxGeometry x="129.38" y="610" width="200" height="30" as="geometry" />
        </mxCell>
        <mxCell id="cEgxLfp2-TmUM2ffQF3a-26" value="&lt;font style=&quot;font-size: 8px;&quot;&gt;losses=bbox_head(x,batch_data_samples)&lt;/font&gt;" style="rounded=1;whiteSpace=wrap;html=1;fillColor=#fff2cc;strokeColor=#d6b656;" parent="1" vertex="1">
          <mxGeometry x="129.38" y="650" width="200.62" height="30" as="geometry" />
        </mxCell>
        <mxCell id="cEgxLfp2-TmUM2ffQF3a-32" value="call_hook(after_train_epoch)" style="rounded=1;whiteSpace=wrap;html=1;fillColor=#fff2cc;strokeColor=#d6b656;" parent="1" vertex="1">
          <mxGeometry x="467.5" y="240" width="182.5" height="30" as="geometry" />
        </mxCell>
        <mxCell id="cEgxLfp2-TmUM2ffQF3a-28" value="&lt;font style=&quot;font-size: 10px;&quot;&gt;parsed_losses,log_vars=parse_loss(losses)&lt;/font&gt;" style="rounded=1;whiteSpace=wrap;html=1;fillColor=#dae8fc;strokeColor=#6c8ebf;" parent="1" vertex="1">
          <mxGeometry x="129.38" y="710" width="200.62" height="30" as="geometry" />
        </mxCell>
        <mxCell id="cEgxLfp2-TmUM2ffQF3a-29" value="optim_wrapper.update_param" style="rounded=1;whiteSpace=wrap;html=1;fillColor=#dae8fc;strokeColor=#6c8ebf;" parent="1" vertex="1">
          <mxGeometry x="129.38" y="750" width="200.62" height="30" as="geometry" />
        </mxCell>
        <mxCell id="cEgxLfp2-TmUM2ffQF3a-30" value="return log_vars" style="text;html=1;align=center;verticalAlign=middle;resizable=0;points=[];autosize=1;strokeColor=none;fillColor=none;" parent="1" vertex="1">
          <mxGeometry x="175" y="790" width="100" height="30" as="geometry" />
        </mxCell>
        <mxCell id="cEgxLfp2-TmUM2ffQF3a-31" value="call_hook(after_train_iter())" style="rounded=1;whiteSpace=wrap;html=1;fillColor=#fff2cc;strokeColor=#d6b656;" parent="1" vertex="1">
          <mxGeometry x="467.5" y="460" width="182.5" height="30" as="geometry" />
        </mxCell>
        <mxCell id="cEgxLfp2-TmUM2ffQF3a-12" value="" style="endArrow=classic;html=1;rounded=0;exitX=0.25;exitY=1;exitDx=0;exitDy=0;entryX=0.25;entryY=0;entryDx=0;entryDy=0;" parent="1" source="cEgxLfp2-TmUM2ffQF3a-9" target="cEgxLfp2-TmUM2ffQF3a-10" edge="1">
          <mxGeometry width="50" height="50" relative="1" as="geometry">
            <mxPoint x="450" y="370" as="sourcePoint" />
            <mxPoint x="500" y="320" as="targetPoint" />
          </mxGeometry>
        </mxCell>
        <mxCell id="1IwON-_dg44sj4eQbkTv-5" value="Runner" style="text;html=1;align=center;verticalAlign=middle;resizable=0;points=[];autosize=1;strokeColor=none;fillColor=none;" parent="1" vertex="1">
          <mxGeometry x="-400" y="-690" width="60" height="30" as="geometry" />
        </mxCell>
        <mxCell id="1IwON-_dg44sj4eQbkTv-6" value="类方法，调用runner的init" style="rounded=1;whiteSpace=wrap;html=1;fillColor=#d5e8d4;strokeColor=#82b366;" parent="1" vertex="1">
          <mxGeometry x="-310" y="-650" width="140" height="70" as="geometry" />
        </mxCell>
        <mxCell id="1IwON-_dg44sj4eQbkTv-7" value="Runner.from_cfg" style="text;html=1;align=center;verticalAlign=middle;resizable=0;points=[];autosize=1;strokeColor=none;fillColor=none;" parent="1" vertex="1">
          <mxGeometry x="-295" y="-650" width="110" height="30" as="geometry" />
        </mxCell>
        <mxCell id="1IwON-_dg44sj4eQbkTv-8" value="" style="rounded=1;whiteSpace=wrap;html=1;fillColor=#d5e8d4;strokeColor=#82b366;" parent="1" vertex="1">
          <mxGeometry x="-310" y="-570" width="140" height="440" as="geometry" />
        </mxCell>
        <mxCell id="1IwON-_dg44sj4eQbkTv-9" value="__init__" style="text;html=1;align=center;verticalAlign=middle;resizable=0;points=[];autosize=1;strokeColor=none;fillColor=none;" parent="1" vertex="1">
          <mxGeometry x="-275" y="-580" width="70" height="30" as="geometry" />
        </mxCell>
        <mxCell id="1IwON-_dg44sj4eQbkTv-10" value="初始化大多数字典配置" style="rounded=1;whiteSpace=wrap;html=1;fillColor=#dae8fc;strokeColor=#6c8ebf;" parent="1" vertex="1">
          <mxGeometry x="-310" y="-550" width="140" height="30" as="geometry" />
        </mxCell>
        <mxCell id="1IwON-_dg44sj4eQbkTv-11" value="&lt;font style=&quot;font-size: 8px;&quot;&gt;setup_env(cudnn.benchmark,mp_cfg)&lt;/font&gt;" style="rounded=1;whiteSpace=wrap;html=1;fillColor=#dae8fc;strokeColor=#6c8ebf;" parent="1" vertex="1">
          <mxGeometry x="-310" y="-510" width="140" height="30" as="geometry" />
        </mxCell>
        <mxCell id="1IwON-_dg44sj4eQbkTv-12" value="设置default_scope,这是DefaultScope对象" style="rounded=1;whiteSpace=wrap;html=1;fillColor=#dae8fc;strokeColor=#6c8ebf;" parent="1" vertex="1">
          <mxGeometry x="-310" y="-470" width="140" height="40" as="geometry" />
        </mxCell>
        <mxCell id="1IwON-_dg44sj4eQbkTv-13" value="build_log_processor" style="rounded=1;whiteSpace=wrap;html=1;fillColor=#dae8fc;strokeColor=#6c8ebf;" parent="1" vertex="1">
          <mxGeometry x="-310" y="-419" width="140" height="29" as="geometry" />
        </mxCell>
        <mxCell id="1IwON-_dg44sj4eQbkTv-14" value="" style="rounded=0;whiteSpace=wrap;html=1;fillColor=#d5e8d4;strokeColor=#82b366;" parent="1" vertex="1">
          <mxGeometry x="-600" y="-660" width="190" height="170" as="geometry" />
        </mxCell>
        <mxCell id="1IwON-_dg44sj4eQbkTv-16" value="build_log_processor" style="text;html=1;align=center;verticalAlign=middle;resizable=0;points=[];autosize=1;strokeColor=none;fillColor=none;" parent="1" vertex="1">
          <mxGeometry x="-570" y="-670" width="130" height="30" as="geometry" />
        </mxCell>
        <mxCell id="1IwON-_dg44sj4eQbkTv-17" value="LOG_PROCESSOR注册器构建,即build(cfg)" style="rounded=1;whiteSpace=wrap;html=1;fillColor=#dae8fc;strokeColor=#6c8ebf;" parent="1" vertex="1">
          <mxGeometry x="-600" y="-640" width="190" height="30" as="geometry" />
        </mxCell>
        <mxCell id="1IwON-_dg44sj4eQbkTv-18" value="self.build_func(cfg,register=self)" style="rounded=1;whiteSpace=wrap;html=1;fillColor=#dae8fc;strokeColor=#6c8ebf;" parent="1" vertex="1">
          <mxGeometry x="-600" y="-595" width="190" height="35" as="geometry" />
        </mxCell>
        <mxCell id="1IwON-_dg44sj4eQbkTv-19" value="build_from_cfg()" style="rounded=1;whiteSpace=wrap;html=1;fillColor=#dae8fc;strokeColor=#6c8ebf;" parent="1" vertex="1">
          <mxGeometry x="-600" y="-542.5" width="190" height="32.5" as="geometry" />
        </mxCell>
        <mxCell id="UgBMLH3zRszJa8f-zaCv-1" value="build_logger(MMlogger构建）" style="rounded=1;whiteSpace=wrap;html=1;fillColor=#dae8fc;strokeColor=#6c8ebf;" parent="1" vertex="1">
          <mxGeometry x="-310" y="-380" width="140" height="30" as="geometry" />
        </mxCell>
        <mxCell id="UgBMLH3zRszJa8f-zaCv-2" value="build_message_hub&lt;br&gt;(MessageHub构建）" style="rounded=1;whiteSpace=wrap;html=1;fillColor=#dae8fc;strokeColor=#6c8ebf;" parent="1" vertex="1">
          <mxGeometry x="-310" y="-340" width="140" height="30" as="geometry" />
        </mxCell>
        <mxCell id="UgBMLH3zRszJa8f-zaCv-3" value="build_visualizer" style="rounded=1;whiteSpace=wrap;html=1;fillColor=#dae8fc;strokeColor=#6c8ebf;" parent="1" vertex="1">
          <mxGeometry x="-310" y="-300" width="140" height="30" as="geometry" />
        </mxCell>
        <mxCell id="k71ltwAw9ipfWd2oro5A-1" value="build_model&lt;br&gt;(build_model_from_cfg)" style="rounded=1;whiteSpace=wrap;html=1;fillColor=#dae8fc;strokeColor=#6c8ebf;" vertex="1" parent="1">
          <mxGeometry x="-310" y="-260" width="140" height="30" as="geometry" />
        </mxCell>
        <mxCell id="k71ltwAw9ipfWd2oro5A-2" value="model的config可能是多个配置字典组成的列表，需要各自调用build_from_cfg,然后用Sequential组成列表返回" style="rounded=0;whiteSpace=wrap;html=1;fillColor=#d5e8d4;strokeColor=#82b366;" vertex="1" parent="1">
          <mxGeometry x="-600" y="-434.5" width="190" height="124.5" as="geometry" />
        </mxCell>
        <mxCell id="k71ltwAw9ipfWd2oro5A-3" value="build_model_from_cfg" style="text;html=1;align=center;verticalAlign=middle;resizable=0;points=[];autosize=1;strokeColor=none;fillColor=none;" vertex="1" parent="1">
          <mxGeometry x="-575" y="-440" width="140" height="30" as="geometry" />
        </mxCell>
        <mxCell id="k71ltwAw9ipfWd2oro5A-5" value="" style="endArrow=classic;html=1;rounded=0;exitX=0;exitY=0.5;exitDx=0;exitDy=0;entryX=1;entryY=1;entryDx=0;entryDy=0;" edge="1" parent="1" source="k71ltwAw9ipfWd2oro5A-1" target="k71ltwAw9ipfWd2oro5A-2">
          <mxGeometry width="50" height="50" relative="1" as="geometry">
            <mxPoint x="-210" y="-390" as="sourcePoint" />
            <mxPoint x="-160" y="-440" as="targetPoint" />
          </mxGeometry>
        </mxCell>
        <mxCell id="k71ltwAw9ipfWd2oro5A-6" value="register_hooks" style="rounded=1;whiteSpace=wrap;html=1;fillColor=#dae8fc;strokeColor=#6c8ebf;" vertex="1" parent="1">
          <mxGeometry x="-310" y="-220" width="140" height="30" as="geometry" />
        </mxCell>
        <mxCell id="k71ltwAw9ipfWd2oro5A-7" value="" style="rounded=0;whiteSpace=wrap;html=1;fillColor=#d5e8d4;strokeColor=#82b366;" vertex="1" parent="1">
          <mxGeometry x="-600" y="-250" width="190" height="170" as="geometry" />
        </mxCell>
        <mxCell id="k71ltwAw9ipfWd2oro5A-8" value="register_hooks" style="text;html=1;align=center;verticalAlign=middle;resizable=0;points=[];autosize=1;strokeColor=none;fillColor=none;" vertex="1" parent="1">
          <mxGeometry x="-555" y="-250" width="100" height="30" as="geometry" />
        </mxCell>
        <mxCell id="k71ltwAw9ipfWd2oro5A-9" value="register_default_hooks&lt;br&gt;(register_hook---&amp;gt;HOOK.build)" style="rounded=1;whiteSpace=wrap;html=1;fillColor=#dae8fc;strokeColor=#6c8ebf;" vertex="1" parent="1">
          <mxGeometry x="-600" y="-220" width="190" height="40" as="geometry" />
        </mxCell>
        <mxCell id="k71ltwAw9ipfWd2oro5A-11" value="register_custom_hooks&lt;br&gt;(register_hook---&amp;gt;HOOK.build)" style="rounded=1;whiteSpace=wrap;html=1;fillColor=#dae8fc;strokeColor=#6c8ebf;" vertex="1" parent="1">
          <mxGeometry x="-600" y="-150" width="190" height="40" as="geometry" />
        </mxCell>
        <mxCell id="k71ltwAw9ipfWd2oro5A-12" value="" style="endArrow=classic;html=1;rounded=0;exitX=0;exitY=0.5;exitDx=0;exitDy=0;entryX=1;entryY=0.5;entryDx=0;entryDy=0;" edge="1" parent="1" source="k71ltwAw9ipfWd2oro5A-6" target="k71ltwAw9ipfWd2oro5A-7">
          <mxGeometry width="50" height="50" relative="1" as="geometry">
            <mxPoint x="-460" y="-280" as="sourcePoint" />
            <mxPoint x="-410" y="-330" as="targetPoint" />
          </mxGeometry>
        </mxCell>
        <mxCell id="k71ltwAw9ipfWd2oro5A-13" value="dump_config()&lt;br&gt;到work_dir" style="rounded=1;whiteSpace=wrap;html=1;fillColor=#dae8fc;strokeColor=#6c8ebf;" vertex="1" parent="1">
          <mxGeometry x="-310" y="-180" width="140" height="30" as="geometry" />
        </mxCell>
        <mxCell id="k71ltwAw9ipfWd2oro5A-14" value="" style="endArrow=classic;html=1;rounded=0;exitX=0;exitY=0.5;exitDx=0;exitDy=0;entryX=1;entryY=1;entryDx=0;entryDy=0;" edge="1" parent="1" source="1IwON-_dg44sj4eQbkTv-13" target="1IwON-_dg44sj4eQbkTv-14">
          <mxGeometry width="50" height="50" relative="1" as="geometry">
            <mxPoint x="-310" y="-404" as="sourcePoint" />
            <mxPoint x="-410" y="-490" as="targetPoint" />
          </mxGeometry>
        </mxCell>
      </root>
    </mxGraphModel>
  </diagram>
</mxfile>
